<svg width="311" height="64" viewBox="0 0 411 64" fill="none" xmlns="http://www.w3.org/2000/svg">
<path d="M12.7875 64H0.1875V0.399996H15.7875L26.2875 36.4L36.7875 0.399996H52.3875V64H39.7875V21.3L31.5875 50.2H20.9875L12.7875 21.4V64ZM75.718 53.5H96.118V64H61.418V0.399996H95.318V10.9H75.718V26.4H92.418V36.9H75.718V53.5ZM128.936 0.399996H142.036V64H129.236L115.336 25.9V64H102.336V0.399996H115.236L128.936 38.4V0.399996ZM184.569 0.399996V10.9H172.869V64H158.569V10.9H146.969V0.399996H184.569ZM218.543 64L216.343 52.5H201.843L199.643 64H185.543L199.943 0.399996H218.143L232.943 64H218.543ZM203.843 42.1H214.243L209.043 15.2L203.843 42.1ZM237.883 0.399996H264.083C272.483 0.399996 276.683 4.06666 276.683 11.4V30.7C276.683 38.1 272.483 41.8 264.083 41.8H252.083V64H237.883V0.399996ZM262.383 28.8V13.4C262.383 11.7333 261.516 10.9 259.783 10.9H252.083V31.3H259.783C261.516 31.3 262.383 30.4667 262.383 28.8ZM295.788 0.399996H309.188C317.588 0.399996 321.788 4.06666 321.788 11.4V52.9C321.788 60.3 317.588 64 309.188 64H295.788C287.322 64 283.088 60.3 283.088 52.9V11.4C283.088 4.06666 287.322 0.399996 295.788 0.399996ZM307.488 51V13.4C307.488 11.7333 306.622 10.9 304.888 10.9H300.088C298.288 10.9 297.388 11.7333 297.388 13.4V51C297.388 52.6667 298.288 53.5 300.088 53.5H304.888C306.622 53.5 307.488 52.6667 307.488 51ZM344.563 40.2V64H330.363V0.399996H356.563C364.963 0.399996 369.163 4.06666 369.163 11.4V29.2C369.163 35.0667 366.497 38.6 361.163 39.8L372.363 64H357.063L347.063 40.2H344.563ZM344.563 10.9V30.1H352.263C353.197 30.1 353.863 29.9333 354.263 29.6C354.663 29.2 354.863 28.5667 354.863 27.7V13.4C354.863 11.7333 353.997 10.9 352.263 10.9H344.563ZM410.838 0.399996V10.9H399.138V64H384.838V10.9H373.238V0.399996H410.838Z" fill="white"/>
</svg>
