<?xml version="1.0" encoding="utf-8"?>
<svg viewBox="0 0 450 100" xmlns="http://www.w3.org/2000/svg">
  <path d="M 71.4060004119873 42.95799713134765 C 69.0570004119873 32.77899713134765 66.18600041198731 23.20899713134765 63.48900041198731 16.24899713134765 C 63.48900041198731 16.335997131347654 62.96700041198731 16.509997131347653 62.010000411987306 16.857997131347652 L 58.443000411987306 18.07599713134765 C 56.96400041198731 18.597997131347654 55.22400041198731 19.119997131347652 53.22300041198731 19.728997131347654 C 52.52700041198731 21.90399713134765 51.74400041198731 24.51399713134765 50.78700041198731 27.732997131347652 C 49.13400041198731 33.213997131347654 46.87200041198731 41.304997131347655 44.001000411987306 52.87599713134765 C 44.001000411987306 52.70199713134765 43.65300041198731 52.179997131347655 43.13100041198731 51.30999713134766 C 42.4350004119873 50.26599713134765 41.47800041198731 48.87399713134765 40.260000411987306 47.22099713134766 C 37.824000411987306 43.82799713134766 34.5180004119873 39.56499713134765 30.951000411987305 35.38899713134765 C 27.384000411987305 31.212997131347656 23.556000411987306 27.384997131347653 20.076000411987305 25.03599713134765 L 9.723000411987304 30.168997131347652 C 11.376000411987304 34.953997131347656 12.768000411987305 39.91299713134765 14.073000411987305 44.871997131347655 C 16.248000411987306 53.484997131347654 18.423000411987307 64.35999713134765 18.423000411987307 74.19099713134766 C 18.423000411987307 74.10399713134765 19.032000411987305 73.92999713134766 20.337000411987304 73.58199713134766 C 21.555000411987308 73.32099713134765 22.947000411987304 72.97299713134765 24.426000411987307 72.53799713134765 L 30.516000411987307 70.97199713134765 C 30.516000411987307 68.88399713134766 30.342000411987307 66.53499713134765 30.081000411987308 63.92499713134765 C 29.385000411987306 58.79199713134766 28.689000411987305 54.00699713134765 27.645000411987308 48.786997131347654 C 29.298000411987307 50.26599713134765 31.299000411987308 53.04999713134765 33.3870004119873 56.18199713134766 C 35.388000411987306 59.40099713134765 37.47600041198731 62.96799713134766 38.95500041198731 66.27399713134766 C 40.34700041198731 69.57999713134765 41.39100041198731 72.53799713134765 41.39100041198731 74.36499713134765 L 50.70000041198731 72.01599713134766 C 51.65700041198731 64.09899713134766 52.788000411987305 58.008997131347655 54.00600041198731 53.57199713134766 C 55.13700041198731 49.22199713134765 56.181000411987306 46.26399713134765 57.138000411987306 44.697997131347655 C 57.312000411987306 45.39399713134765 57.48600041198731 46.176997131347655 57.74700041198731 47.04699713134765 C 58.53000041198731 49.917997131347654 59.574000411987306 53.83299713134765 60.44400041198731 58.182997131347655 C 61.48800041198731 63.837997131347656 62.35800041198731 70.36299713134765 62.35800041198731 76.62699713134765 C 63.05400041198731 76.53999713134766 63.75000041198731 76.36599713134765 64.44600041198731 76.10499713134766 C 65.05500041198731 75.93099713134765 65.75100041198732 75.75699713134766 66.53400041198731 75.49599713134765 C 67.31700041198731 75.32199713134766 68.10000041198731 75.14799713134765 68.88300041198731 74.88699713134766 L 75.32100041198731 73.14699713134766 C 75.32100041198731 63.837997131347656 73.75500041198731 53.136997131347655 71.4060004119873 42.95799713134765 Z M 114.20375231933593 30.255997131347655 L 85.49375231933594 29.21199713134765 L 77.75075231933593 35.21499713134765 C 79.05575231933594 38.694997131347655 80.44775231933593 45.219997131347654 81.57875231933593 52.44099713134766 C 82.62275231933594 59.661997131347654 83.40575231933593 67.40499713134766 83.40575231933593 73.23399713134765 L 119.77175231933595 67.05699713134766 L 124.12175231933594 56.79099713134765 L 94.45475231933594 60.966997131347654 C 94.36775231933593 58.965997131347656 94.19375231933594 56.703997131347656 93.93275231933593 54.093997131347656 L 115.68275231933595 52.179997131347655 L 116.72675231933594 43.82799713134766 L 93.41075231933594 45.13299713134765 L 92.10575231933593 38.868997131347655 L 99.76175231933594 38.60799713134765 C 105.41675231933594 38.60799713134765 110.81075231933593 38.868997131347655 116.81375231933595 39.216997131347654 Z M 156.31387731933594 23.55699713134765 C 156.31387731933594 23.55699713134765 156.31387731933594 24.07899713134765 156.40087731933593 25.20999713134765 L 156.66187731933593 29.55999713134765 C 156.83587731933594 33.213997131347654 157.09687731933593 38.08599713134765 157.79287731933596 43.13199713134765 C 158.40187731933594 48.17799713134765 159.35887731933593 53.39799713134765 160.83787731933595 57.57399713134765 C 156.74887731933595 51.91899713134765 151.87687731933593 45.91599713134765 147.00487731933595 40.60899713134766 C 142.13287731933593 35.38899713134765 137.26087731933595 30.51699713134765 133.43287731933594 26.94999713134765 L 123.42787731933593 30.51699713134765 C 125.95087731933594 36.69399713134765 127.34287731933594 43.47999713134765 128.12587731933593 49.917997131347654 C 128.82187731933593 56.35599713134765 128.90887731933594 62.532997131347656 128.90887731933594 67.05699713134766 L 128.90887731933594 69.31899713134766 C 128.82187731933593 70.10199713134766 128.82187731933593 70.71099713134765 128.82187731933593 71.23299713134766 C 128.73487731933594 71.84199713134765 128.73487731933594 72.45099713134766 128.73487731933594 72.97299713134765 L 143.26387731933593 70.18899713134766 C 143.26387731933593 68.27499713134766 143.17687731933594 66.18699713134765 143.08987731933593 64.01199713134766 C 142.82887731933593 59.661997131347654 142.48087731933595 55.83399713134766 142.13287731933593 53.310997131347655 C 141.95887731933595 52.09299713134766 141.87187731933594 51.39699713134765 141.78487731933595 51.30999713134766 C 144.13387731933594 53.74599713134765 146.48287731933596 56.35599713134765 148.83187731933594 59.05299713134765 C 152.74687731933594 63.66399713134766 157.61887731933595 69.92799713134765 161.01187731933595 76.19199713134766 L 173.10487731933594 73.40799713134766 L 172.06087731933593 63.66399713134766 C 171.36487731933593 56.79099713134765 170.75587731933595 49.65699713134765 170.32087731933595 42.783997131347654 C 169.88587731933595 35.910997131347656 169.62487731933595 29.820997131347653 169.62487731933595 25.03599713134765 C 169.62487731933595 22.686997131347653 169.71187731933594 20.77299713134765 169.88587731933595 19.380997131347648 Z M 195.02037731933595 33.996997131347655 C 191.19237731933595 33.996997131347655 187.88637731933593 34.170997131347654 185.18937731933593 34.43199713134765 C 179.70837731933594 35.04099713134765 176.14137731933593 35.649997131347654 173.61837731933593 36.606997131347654 L 171.09537731933594 45.219997131347654 C 172.40037731933595 44.871997131347655 173.87937731933593 44.61099713134765 175.53237731933595 44.34999713134765 C 178.40337731933593 43.914997131347654 182.49237731933593 43.47999713134765 187.79937731933595 43.47999713134765 C 187.79937731933595 50.43999713134765 187.79937731933595 60.70599713134766 190.14837731933594 72.27699713134766 C 191.45337731933594 72.01599713134766 192.75837731933595 71.84199713134765 194.41137731933594 71.58099713134766 C 195.19437731933593 71.49399713134765 196.06437731933593 71.31999713134766 196.93437731933594 71.14599713134766 L 203.72037731933594 69.92799713134765 C 202.06737731933595 61.749997131347655 201.54537731933596 55.22499713134765 201.54537731933596 50.17899713134766 C 201.54537731933596 47.307997131347655 201.71937731933593 44.871997131347655 201.98037731933593 42.87099713134765 L 202.67637731933593 42.87099713134765 C 203.11137731933593 42.95799713134765 203.72037731933594 42.95799713134765 204.50337731933593 42.95799713134765 C 205.98237731933594 43.04499713134766 208.07037731933593 43.13199713134765 210.07137731933594 43.13199713134765 L 218.07537731933593 43.30599713134765 L 219.90237731933593 34.86699713134765 C 217.90137731933595 34.779997131347656 215.72637731933594 34.60599713134765 213.20337731933594 34.43199713134765 C 208.76637731933593 34.170997131347654 202.67637731933593 33.996997131347655 195.02037731933595 33.996997131347655 Z M 235.12650231933594 24.86199713134765 C 233.47350231933595 29.994997131347652 231.82050231933593 34.86699713134765 229.47150231933594 40.52199713134765 C 227.03550231933593 46.176997131347655 224.42550231933595 51.74499713134766 221.38050231933593 56.96499713134766 C 218.24850231933593 62.18499713134766 215.55150231933592 66.44799713134765 212.68050231933594 70.71099713134765 L 224.33850231933593 77.40999713134765 L 231.99450231933594 64.62099713134765 L 245.74050231933595 64.01199713134766 L 252.70050231933595 76.53999713134766 L 267.9255023193359 78.36699713134766 C 264.18450231933593 71.40699713134765 260.96550231933594 63.75099713134766 258.442502319336 57.051997131347655 C 255.91950231933595 50.35299713134765 254.09250231933595 44.61099713134765 253.13550231933596 41.21799713134765 C 251.04750231933593 34.170997131347654 249.13350231933595 27.819997131347655 249.13350231933595 21.816997131347648 Z M 234.51750231933593 57.13899713134765 L 240.52050231933595 44.697997131347655 L 244.60950231933595 56.61699713134766 Z M 261.4847370605469 30.51699713134765 C 262.7897370605469 34.779997131347656 264.0077370605469 39.042997131347654 265.0517370605469 43.47999713134765 C 266.8787370605469 51.048997131347654 268.7057370605469 60.444997131347655 268.7057370605469 68.79699713134765 L 268.7057370605469 71.05899713134765 C 268.6187370605469 71.84199713134765 268.6187370605469 72.45099713134766 268.6187370605469 72.97299713134765 C 268.5317370605469 73.58199713134766 268.5317370605469 74.19099713134766 268.5317370605469 74.71299713134766 L 282.88673706054686 71.92899713134766 C 282.88673706054686 70.18899713134766 282.88673706054686 67.75299713134766 282.7127370605469 65.31699713134765 C 282.53873706054685 62.880997131347655 282.1907370605469 60.53199713134765 281.8427370605469 58.87899713134765 C 292.02173706054685 58.87899713134765 299.67773706054686 57.48699713134766 304.63673706054686 55.22499713134765 C 309.59573706054687 52.962997131347656 312.1187370605469 49.83099713134766 312.1187370605469 46.26399713134765 C 312.1187370605469 43.21899713134765 309.2477370605469 40.26099713134765 304.8107370605469 37.737997131347655 C 300.2867370605469 35.21499713134765 294.3707370605469 32.865997131347655 288.36773706054686 31.03899713134765 C 282.3647370605469 29.21199713134765 276.2747370605469 27.732997131347652 271.4897370605469 26.94999713134765 Z M 278.1017370605469 38.868997131347655 C 280.4507370605469 38.868997131347655 282.7127370605469 39.12999713134765 285.0617370605469 39.73899713134765 C 289.67273706054686 40.956997131347656 293.41373706054685 42.783997131347654 295.6757370605469 44.523997131347656 C 296.8067370605469 45.39399713134765 297.32873706054687 46.08999713134766 297.32873706054687 46.69899713134765 C 297.32873706054687 47.307997131347655 296.89373706054687 47.82999713134765 296.11073706054685 48.35199713134766 C 295.3277370605469 48.96099713134765 294.19673706054687 49.395997131347656 292.7177370605469 49.83099713134766 C 289.8467370605469 50.700997131347656 285.7577370605469 51.30999713134766 280.9727370605469 51.30999713134766 C 280.7987370605469 50.26599713134765 280.62473706054686 49.22199713134765 280.4507370605469 48.264997131347656 C 280.3637370605469 47.56899713134766 280.18973706054686 46.87299713134765 280.1027370605469 46.176997131347655 C 279.4937370605469 43.392997131347656 278.88473706054685 40.26099713134765 278.1017370605469 38.868997131347655 Z M 330.9083620605469 32.691997131347655 C 324.5573620605469 32.691997131347655 318.90236206054686 34.25799713134765 314.81336206054686 37.30299713134765 C 310.6373620605469 40.43499713134765 308.11436206054685 45.13299713134765 308.11436206054685 51.39699713134765 C 308.11436206054685 54.52899713134765 308.98436206054686 58.70499713134765 311.9423620605469 62.097997131347654 C 314.90036206054685 65.57799713134766 319.85936206054686 68.18799713134766 328.2983620605469 68.18799713134766 C 335.5193620605469 68.18799713134766 341.08736206054687 66.09999713134765 344.9153620605469 62.706997131347656 C 348.6563620605469 59.313997131347655 350.65736206054686 54.615997131347655 350.65736206054686 49.48299713134766 C 350.65736206054686 44.34999713134765 348.39536206054686 40.173997131347654 344.82836206054685 37.215997131347656 C 341.2613620605469 34.25799713134765 336.21536206054685 32.691997131347655 330.9083620605469 32.691997131347655 Z M 329.77736206054686 40.956997131347656 C 333.5183620605469 40.956997131347656 336.99836206054687 44.00199713134765 336.99836206054687 49.83099713134766 C 336.99836206054687 55.65999713134765 335.0843620605469 60.00999713134765 329.77736206054686 60.00999713134765 C 323.86136206054687 60.00999713134765 322.12136206054686 56.44299713134765 322.12136206054686 50.874997131347655 C 322.12136206054686 44.61099713134765 325.25336206054686 40.956997131347656 329.77736206054686 40.956997131347656 Z M 351.0032370605469 34.60599713134765 C 352.13423706054687 37.65099713134765 353.09123706054686 40.782997131347656 353.96123706054686 44.00199713134765 C 355.44023706054685 49.569997131347655 356.9192370605469 56.79099713134765 356.9192370605469 63.48999713134766 L 356.9192370605469 65.92599713134766 C 356.8322370605469 67.83999713134766 356.74523706054686 69.75399713134766 356.74523706054686 71.84199713134765 L 368.3162370605469 72.36399713134766 L 368.3162370605469 69.31899713134766 C 368.2292370605469 68.01399713134765 368.2292370605469 66.53499713134765 368.2292370605469 65.05599713134765 C 368.1422370605469 63.054997131347655 368.05523706054686 61.14099713134765 367.8812370605469 59.57499713134766 C 367.8812370605469 58.79199713134766 367.7942370605469 58.09599713134766 367.7942370605469 57.57399713134765 C 369.6212370605469 57.57399713134765 371.4482370605469 57.834997131347656 373.1882370605469 58.44399713134766 C 376.66823706054686 59.661997131347654 379.9742370605469 61.575997131347656 382.58423706054685 63.66399713134766 C 385.19423706054687 65.75199713134765 387.10823706054686 67.57899713134765 388.2392370605469 68.79699713134765 L 389.0222370605469 69.75399713134766 C 389.1092370605469 69.75399713134766 389.80523706054686 69.49299713134765 391.11023706054686 68.97099713134766 C 392.4152370605469 68.53599713134766 393.80723706054687 68.01399713134765 395.3732370605469 67.40499713134766 L 399.5492370605469 65.75199713134765 C 400.68023706054686 65.22999713134766 401.2892370605469 64.96899713134766 401.2892370605469 64.96899713134766 C 399.8102370605469 63.402997131347654 397.89623706054687 61.923997131347654 395.72123706054685 60.444997131347655 C 391.2842370605469 57.660997131347656 387.10823706054686 55.31199713134765 381.8882370605469 53.136997131347655 C 384.75923706054687 52.353997131347654 387.2822370605469 51.57099713134765 389.1092370605469 50.526997131347656 C 390.9362370605469 49.48299713134766 392.06723706054686 48.09099713134765 392.06723706054686 46.002997131347655 C 392.06723706054686 43.566997131347655 389.6312370605469 41.304997131347655 386.0642370605469 39.39099713134765 C 382.49723706054687 37.47699713134765 377.62523706054685 35.99799713134765 372.7532370605469 34.69299713134765 C 367.8812370605469 33.38799713134765 362.9222370605469 32.43099713134765 359.0942370605469 31.734997131347654 Z M 364.48823706054685 41.304997131347655 C 366.4022370605469 41.304997131347655 368.2292370605469 41.478997131347654 369.88223706054686 41.91399713134766 C 373.1882370605469 42.69699713134766 375.79823706054685 43.82799713134766 377.2772370605469 45.13299713134765 C 377.97323706054686 45.74199713134765 378.3212370605469 46.350997131347654 378.3212370605469 46.785997131347656 C 378.3212370605469 48.69999713134766 374.4932370605469 49.65699713134765 366.75023706054685 49.65699713134765 C 366.4892370605469 48.52599713134765 366.31523706054685 47.39499713134765 366.0542370605469 46.350997131347654 C 365.6192370605469 44.523997131347656 365.0972370605469 42.435997131347655 364.48823706054685 41.304997131347655 Z M 413.64536206054686 33.996997131347655 C 409.8173620605469 33.996997131347655 406.5113620605469 34.170997131347654 403.8143620605469 34.43199713134765 C 398.33336206054685 35.04099713134765 394.7663620605469 35.649997131347654 392.2433620605469 36.606997131347654 L 389.72036206054685 45.219997131347654 C 391.02536206054685 44.871997131347655 392.5043620605469 44.61099713134765 394.15736206054686 44.34999713134765 C 397.0283620605469 43.914997131347654 401.1173620605469 43.47999713134765 406.42436206054685 43.47999713134765 C 406.42436206054685 50.43999713134765 406.42436206054685 60.70599713134766 408.7733620605469 72.27699713134766 C 410.07836206054685 72.01599713134766 411.38336206054686 71.84199713134765 413.0363620605469 71.58099713134766 C 413.8193620605469 71.49399713134765 414.6893620605469 71.31999713134766 415.5593620605469 71.14599713134766 L 422.3453620605469 69.92799713134765 C 420.6923620605469 61.749997131347655 420.1703620605469 55.22499713134765 420.1703620605469 50.17899713134766 C 420.1703620605469 47.307997131347655 420.34436206054687 44.871997131347655 420.6053620605469 42.87099713134765 L 421.30136206054686 42.87099713134765 C 421.73636206054687 42.95799713134765 422.3453620605469 42.95799713134765 423.12836206054686 42.95799713134765 C 424.60736206054685 43.04499713134766 426.69536206054687 43.13199713134765 428.6963620605469 43.13199713134765 L 436.70036206054687 43.30599713134765 L 438.52736206054686 34.86699713134765 C 436.5263620605469 34.779997131347656 434.3513620605469 34.60599713134765 431.82836206054685 34.43199713134765 C 427.3913620605469 34.170997131347654 421.30136206054686 33.996997131347655 413.64536206054686 33.996997131347655 Z" transform="matrix(1, 0, 0, 1, 0, 0)" style="fill: rgb(14, 14, 16); white-space: pre;"/>
  <path transform="matrix(1, 0, 0, 1, 0, 0)" style="fill: rgb(51, 51, 51); white-space: pre;"/>
</svg>